<svg xmlns="http://www.w3.org/2000/svg" viewBox="0 0 1280 720" width="1280" height="720">
  <rect x="0" y="0" width="1280" height="720" fill="#FFFFFF" />

  
  <g id="header">
    <rect x="56" y="48" width="6" height="32" fill="#00A6A6" />
    <text x="74" y="72" font-family="Microsoft YaHei, PingFang SC, Arial, sans-serif" font-size="14" font-weight="bold" fill="#00A6A6" letter-spacing="2">04 · 价值主张</text>
    <text x="56" y="180" font-family="Microsoft YaHei, PingFang SC, Arial, sans-serif" font-size="50" font-weight="bold" fill="#0F2A44">让开发用"大白话"</text>
    <text x="56" y="240" font-family="Microsoft YaHei, PingFang SC, Arial, sans-serif" font-size="50" font-weight="bold" fill="#0F2A44">调动所有观测后端</text>
    <text x="56" y="288" font-family="Microsoft YaHei, PingFang SC, Arial, sans-serif" font-size="20" fill="#5A6B7E">不是替代 SRE，而是让一线开发具备独立闭环能力，把 SRE 拉回真正的平台工程</text>
  </g>

  
  <g id="rule-line">
    <line x1="56" y1="320" x2="1224" y2="320" stroke="#E2E8F0" />
    <rect x="56" y="318" width="280" height="4" fill="#00A6A6" />
  </g>

  
  <g id="blocks">
    
    <g transform="translate(56,360)">
      <path fill="#F4F6FA" d="M6,0 H374 A6,6 0 0 1 380,6 V214 A6,6 0 0 1 374,220 H6 A6,6 0 0 1 0,214 V6 A6,6 0 0 1 6,0 Z" />
      <rect x="0" y="0" width="6" height="220" fill="#00A6A6" />
      
  <g transform="translate(28.0, 28.0) scale(2.75)" fill="#00A6A6">
    <path d="M9 7L10 0H8L2 7V9H7L6 16H8L14 9L14 7H9Z" />
  </g>
      <text x="92" y="50" font-family="Microsoft YaHei, PingFang SC, Arial, sans-serif" font-size="24" font-weight="bold" fill="#0F2A44">独立闭环</text>
      <text x="28" y="100" font-family="Microsoft YaHei, PingFang SC, Arial, sans-serif" font-size="17" fill="#0F2A44">自己的服务故障自己查</text>
      <text x="28" y="138" font-family="Microsoft YaHei, PingFang SC, Arial, sans-serif" font-size="15" fill="#5A6B7E">一线开发无需学习 PromQL/LogQL/TraceQL，</text>
      <text x="28" y="160" font-family="Microsoft YaHei, PingFang SC, Arial, sans-serif" font-size="15" fill="#5A6B7E">用大白话申告即可拿到一份 RCA</text>
      <text x="28" y="190" font-family="Microsoft YaHei, PingFang SC, Arial, sans-serif" font-size="13" fill="#8896A6">→ 解放 SRE 的"客服"角色</text>
    </g>

    
    <g transform="translate(450,360)">
      <path fill="#F4F6FA" d="M6,0 H374 A6,6 0 0 1 380,6 V214 A6,6 0 0 1 374,220 H6 A6,6 0 0 1 0,214 V6 A6,6 0 0 1 6,0 Z" />
      <rect x="0" y="0" width="6" height="220" fill="#0F2A44" />
      
  <g transform="translate(28.0, 28.0) scale(2.75)" fill="#0F2A44">
    <path d="M13.1371 6.91018C13.4184 6.7695 13.7123 6.59981 14 6.40001V8C14 9.65685 11.3137 11 8 11C4.68629 11 2 9.65685 2 8V6.40001C2.28772 6.59981 2.58158 6.7695 2.86293 6.91018C4.28096 7.61919 6.09998 8 8 8C9.90002 8 11.719 7.61919 13.1371 6.91018Z" />
    <path d="M2 11.4V13C2 14.6569 4.68629 16 8 16C11.3137 16 14 14.6569 14 13V11.4C13.7123 11.5998 13.4184 11.7695 13.1371 11.9102C11.719 12.6192 9.90002 13 8 13C6.09998 13 4.28096 12.6192 2.86293 11.9102C2.58158 11.7695 2.28772 11.5998 2 11.4Z" />
    <path d="M8 0C11.3137 0 14 1.34315 14 3C14 4.65685 11.3137 6 8 6C4.68629 6 2 4.65685 2 3C2 1.34315 4.68629 0 8 0Z" />
  </g>
      <text x="92" y="50" font-family="Microsoft YaHei, PingFang SC, Arial, sans-serif" font-size="24" font-weight="bold" fill="#0F2A44">沉淀组织资产</text>
      <text x="28" y="100" font-family="Microsoft YaHei, PingFang SC, Arial, sans-serif" font-size="17" fill="#0F2A44">每次 RCA 都进入知识库</text>
      <text x="28" y="138" font-family="Microsoft YaHei, PingFang SC, Arial, sans-serif" font-size="15" fill="#5A6B7E">少数 SRE 的肌肉记忆转化为</text>
      <text x="28" y="160" font-family="Microsoft YaHei, PingFang SC, Arial, sans-serif" font-size="15" fill="#5A6B7E">全员可调用的故障图谱（脑暴 PM-1）</text>
      <text x="28" y="190" font-family="Microsoft YaHei, PingFang SC, Arial, sans-serif" font-size="13" fill="#8896A6">→ 数据飞轮，越用越聪明</text>
    </g>

    
    <g transform="translate(844,360)">
      <path fill="#F4F6FA" d="M6,0 H374 A6,6 0 0 1 380,6 V214 A6,6 0 0 1 374,220 H6 A6,6 0 0 1 0,214 V6 A6,6 0 0 1 6,0 Z" />
      <rect x="0" y="0" width="6" height="220" fill="#4A6FA5" />
      
  <g transform="translate(28.0, 28.0) scale(2.75)" fill="#4A6FA5">
    <path d="M8 3.5C8 4.88071 6.88071 6 5.5 6C4.11929 6 3 4.88071 3 3.5C3 2.11929 4.11929 1 5.5 1C6.88071 1 8 2.11929 8 3.5Z" />
    <path d="M3 8C1.34315 8 0 9.34315 0 11V15H8V8H3Z" />
    <path d="M13 8H10V15H16V11C16 9.34315 14.6569 8 13 8Z" />
    <path d="M12 6C13.1046 6 14 5.10457 14 4C14 2.89543 13.1046 2 12 2C10.8954 2 10 2.89543 10 4C10 5.10457 10.8954 6 12 6Z" />
  </g>
      <text x="92" y="50" font-family="Microsoft YaHei, PingFang SC, Arial, sans-serif" font-size="24" font-weight="bold" fill="#0F2A44">解放 SRE</text>
      <text x="28" y="100" font-family="Microsoft YaHei, PingFang SC, Arial, sans-serif" font-size="17" fill="#0F2A44">从查日志客服 → 平台工程师</text>
      <text x="28" y="138" font-family="Microsoft YaHei, PingFang SC, Arial, sans-serif" font-size="15" fill="#5A6B7E">SRE 团队回归 SLO / 容量规划 /</text>
      <text x="28" y="160" font-family="Microsoft YaHei, PingFang SC, Arial, sans-serif" font-size="15" fill="#5A6B7E">可观测性平台本身的高阶工作</text>
      <text x="28" y="190" font-family="Microsoft YaHei, PingFang SC, Arial, sans-serif" font-size="13" fill="#8896A6">→ 让人效回到组织最有杠杆的地方</text>
    </g>
  </g>

  
  <g id="bottom-rule">
    <path fill="#0F2A44" d="M62,612 H1218 A6,6 0 0 1 1224,618 V662 A6,6 0 0 1 1218,668 H62 A6,6 0 0 1 56,662 V618 A6,6 0 0 1 62,612 Z" />
    
  <g transform="translate(80.0, 624.0) scale(2.0)" fill="#00A6A6">
    <path fill-rule="evenodd" clip-rule="evenodd" d="M8 16L4.35009 13.3929C2.24773 11.8912 1 9.46667 1 6.88306V3L8 0L15 3V6.88306C15 9.46667 13.7523 11.8912 11.6499 13.3929L8 16ZM12.2071 5.70711L10.7929 4.29289L7 8.08579L5.20711 6.29289L3.79289 7.70711L7 10.9142L12.2071 5.70711Z" />
  </g>
    <text x="128" y="646" font-family="Microsoft YaHei, PingFang SC, Arial, sans-serif" font-size="17" fill="#FFFFFF">边界声明</text>
    <text x="232" y="646" font-family="Microsoft YaHei, PingFang SC, Arial, sans-serif" font-size="16" fill="#A8C0DA">·</text>
    <text x="256" y="646" font-family="Microsoft YaHei, PingFang SC, Arial, sans-serif" font-size="16" fill="#FFFFFF">只读排查，绝不修改线上状态（ADR-002）· 信任未建立前，不开任何写权限</text>
  </g>

  <line x1="56" y1="676" x2="1224" y2="676" stroke="#E2E8F0" />
  <text x="56" y="700" font-family="Microsoft YaHei, PingFang SC, Arial, sans-serif" font-size="11" fill="#8896A6">PRD §2 · brainstorm PM-1 / D-5 · ADR-002</text>
  <text x="1224" y="700" font-family="Microsoft YaHei, PingFang SC, Arial, sans-serif" font-size="11" fill="#8896A6" text-anchor="end">P04 / 12</text>
</svg>