<svg xmlns="http://www.w3.org/2000/svg" viewBox="0 0 1280 720" width="1280" height="720">
  <rect x="0" y="0" width="1280" height="720" fill="#FFFFFF" />

  
  <rect x="56" y="48" width="6" height="32" fill="#C62828" />
  <text x="74" y="72" font-family="Microsoft YaHei, PingFang SC, Arial, sans-serif" font-size="14" font-weight="bold" fill="#C62828" letter-spacing="2">08 · 核心创新 ③</text>
  <text x="56" y="118" font-family="Microsoft YaHei, PingFang SC, Arial, sans-serif" font-size="37" font-weight="bold" fill="#0F2A44">优雅收尾：失败也交付"部分 RCA"</text>
  <text x="56" y="156" font-family="Microsoft YaHei, PingFang SC, Arial, sans-serif" font-size="18" fill="#5A6B7E">失败 / 预算耗尽不抛 500、不静默、不臆测（ADR-005）</text>

  
  <g id="risk">
    <path fill="#FFFFFF" stroke="#C62828" stroke-width="1.4" d="M64,200 H608 A8,8 0 0 1 616,208 V612 A8,8 0 0 1 608,620 H64 A8,8 0 0 1 56,612 V208 A8,8 0 0 1 64,200 Z" />
    <rect x="56" y="200" width="560" height="6" fill="#C62828" />
    <text x="80" y="244" font-family="Microsoft YaHei, PingFang SC, Arial, sans-serif" font-size="14" font-weight="bold" fill="#C62828" letter-spacing="2">RISK · 真实生产不可避免的崩溃场景</text>
    <text x="80" y="278" font-family="Microsoft YaHei, PingFang SC, Arial, sans-serif" font-size="22" font-weight="bold" fill="#0F2A44">三类典型失败</text>

    <g transform="translate(80,316)">
      <path fill="#C62828" fill-opacity="0.14" d="M4,0 H28 A4,4 0 0 1 32,4 V28 A4,4 0 0 1 28,32 H4 A4,4 0 0 1 0,28 V4 A4,4 0 0 1 4,0 Z" />
      <text x="16" y="22" font-family="Microsoft YaHei, PingFang SC, Arial, sans-serif" font-size="14" font-weight="bold" fill="#C62828" text-anchor="middle">1</text>
      <text x="48" y="20" font-family="Microsoft YaHei, PingFang SC, Arial, sans-serif" font-size="17" font-weight="bold" fill="#0F2A44">QL 自修正耗尽</text>
      <text x="48" y="42" font-family="Microsoft YaHei, PingFang SC, Arial, sans-serif" font-size="14" fill="#5A6B7E">单 tool 重生成 3 次仍失败</text>
    </g>

    <g transform="translate(80,376)">
      <path fill="#C62828" fill-opacity="0.14" d="M4,0 H28 A4,4 0 0 1 32,4 V28 A4,4 0 0 1 28,32 H4 A4,4 0 0 1 0,28 V4 A4,4 0 0 1 4,0 Z" />
      <text x="16" y="22" font-family="Microsoft YaHei, PingFang SC, Arial, sans-serif" font-size="14" font-weight="bold" fill="#C62828" text-anchor="middle">2</text>
      <text x="48" y="20" font-family="Microsoft YaHei, PingFang SC, Arial, sans-serif" font-size="17" font-weight="bold" fill="#0F2A44">后端持续 5xx / 超时</text>
      <text x="48" y="42" font-family="Microsoft YaHei, PingFang SC, Arial, sans-serif" font-size="14" fill="#5A6B7E">退避重试 2 次仍不可用</text>
    </g>

    <g transform="translate(80,436)">
      <path fill="#C62828" fill-opacity="0.14" d="M4,0 H28 A4,4 0 0 1 32,4 V28 A4,4 0 0 1 28,32 H4 A4,4 0 0 1 0,28 V4 A4,4 0 0 1 4,0 Z" />
      <text x="16" y="22" font-family="Microsoft YaHei, PingFang SC, Arial, sans-serif" font-size="14" font-weight="bold" fill="#C62828" text-anchor="middle">3</text>
      <text x="48" y="20" font-family="Microsoft YaHei, PingFang SC, Arial, sans-serif" font-size="17" font-weight="bold" fill="#0F2A44">会话预算耗尽</text>
      <text x="48" y="42" font-family="Microsoft YaHei, PingFang SC, Arial, sans-serif" font-size="14" fill="#5A6B7E">token / tool 次数 / 时长触顶</text>
    </g>

    
  <g transform="translate(80.0, 488.0) scale(2.75)" fill="#C62828">
    <path fill-rule="evenodd" clip-rule="evenodd" d="M0 11.25L4.75 16H11.25L16 11.25V4.75L11.25 0H4.75L0 4.75V11.25ZM7 3V9H9V3H7ZM7 11V13H9V11H7Z" />
  </g>
    <text x="140" y="510" font-family="Microsoft YaHei, PingFang SC, Arial, sans-serif" font-size="15" font-weight="bold" fill="#0F2A44">传统做法：抛 500 / 静默 / 臆测</text>
    <text x="140" y="534" font-family="Microsoft YaHei, PingFang SC, Arial, sans-serif" font-size="13" fill="#5A6B7E">用户拿不到结果 / 拿到错误结论</text>
    <text x="140" y="554" font-family="Microsoft YaHei, PingFang SC, Arial, sans-serif" font-size="13" fill="#5A6B7E">下次直接放弃 AI，回退 SRE 人工</text>
  </g>

  
  <g id="arrow">
    <line x1="620" y1="408" x2="660" y2="408" stroke="#00A6A6" stroke-width="2" />
    <polygon points="668,408 658,402 658,414" fill="#00A6A6" />
  </g>

  
  <g id="handling">
    <path fill="#F4F6FA" stroke="#00A6A6" stroke-width="1.4" d="M688,200 H1216 A8,8 0 0 1 1224,208 V612 A8,8 0 0 1 1216,620 H688 A8,8 0 0 1 680,612 V208 A8,8 0 0 1 688,200 Z" />
    <rect x="680" y="200" width="544" height="6" fill="#00A6A6" />
    <text x="704" y="244" font-family="Microsoft YaHei, PingFang SC, Arial, sans-serif" font-size="14" font-weight="bold" fill="#00A6A6" letter-spacing="2">HANDLING · 我们的处置</text>
    <text x="704" y="278" font-family="Microsoft YaHei, PingFang SC, Arial, sans-serif" font-size="22" font-weight="bold" fill="#0F2A44">不崩 · 不静默 · 不臆测</text>

    <g transform="translate(704,316)">
      
  <g transform="translate(0.0, 0.0) scale(1.75)" fill="#00A6A6">
    <path fill-rule="evenodd" clip-rule="evenodd" d="M8 16C12.4183 16 16 12.4183 16 8C16 3.58172 12.4183 0 8 0C3.58172 0 0 3.58172 0 8C0 12.4183 3.58172 16 8 16ZM12.7071 5.70711L11.2929 4.29289L6.5 9.08579L4.70711 7.29289L3.29289 8.70711L6.5 11.9142L12.7071 5.70711Z" />
  </g>
      <text x="40" y="20" font-family="Microsoft YaHei, PingFang SC, Arial, sans-serif" font-size="16" font-weight="bold" fill="#0F2A44">不抛 500，绝不中断会话</text>
      <text x="40" y="44" font-family="Microsoft YaHei, PingFang SC, Arial, sans-serif" font-size="13" fill="#5A6B7E">即使所有工具都失败，前端也能拿到一份有结构的响应</text>
    </g>

    <g transform="translate(704,378)">
      
  <g transform="translate(0.0, 0.0) scale(1.75)" fill="#00A6A6">
    <path fill-rule="evenodd" clip-rule="evenodd" d="M8 16C12.4183 16 16 12.4183 16 8C16 3.58172 12.4183 0 8 0C3.58172 0 0 3.58172 0 8C0 12.4183 3.58172 16 8 16ZM12.7071 5.70711L11.2929 4.29289L6.5 9.08579L4.70711 7.29289L3.29289 8.70711L6.5 11.9142L12.7071 5.70711Z" />
  </g>
      <text x="40" y="20" font-family="Microsoft YaHei, PingFang SC, Arial, sans-serif" font-size="16" font-weight="bold" fill="#0F2A44">用已收集证据生成"部分 RCA"</text>
      <text x="40" y="44" font-family="Microsoft YaHei, PingFang SC, Arial, sans-serif" font-size="13" fill="#5A6B7E">已查到的证据不浪费，组织至少能复用</text>
    </g>

    <g transform="translate(704,440)">
      
  <g transform="translate(0.0, 0.0) scale(1.75)" fill="#00A6A6">
    <path fill-rule="evenodd" clip-rule="evenodd" d="M8 16C12.4183 16 16 12.4183 16 8C16 3.58172 12.4183 0 8 0C3.58172 0 0 3.58172 0 8C0 12.4183 3.58172 16 8 16ZM12.7071 5.70711L11.2929 4.29289L6.5 9.08579L4.70711 7.29289L3.29289 8.70711L6.5 11.9142L12.7071 5.70711Z" />
  </g>
      <text x="40" y="20" font-family="Microsoft YaHei, PingFang SC, Arial, sans-serif" font-size="16" font-weight="bold" fill="#0F2A44">顶部显式标注证据缺口</text>
      <text x="40" y="44" font-family="Microsoft YaHei, PingFang SC, Arial, sans-serif" font-size="13" fill="#5A6B7E">"⚠ 本报告因预算/时间未能完成以下查询：[...]"</text>
    </g>

    <g transform="translate(704,502)">
      
  <g transform="translate(0.0, 0.0) scale(1.75)" fill="#00A6A6">
    <path fill-rule="evenodd" clip-rule="evenodd" d="M8 16C12.4183 16 16 12.4183 16 8C16 3.58172 12.4183 0 8 0C3.58172 0 0 3.58172 0 8C0 12.4183 3.58172 16 8 16ZM12.7071 5.70711L11.2929 4.29289L6.5 9.08579L4.70711 7.29289L3.29289 8.70711L6.5 11.9142L12.7071 5.70711Z" />
  </g>
      <text x="40" y="20" font-family="Microsoft YaHei, PingFang SC, Arial, sans-serif" font-size="16" font-weight="bold" fill="#0F2A44">诚实表达不确定性</text>
      <text x="40" y="44" font-family="Microsoft YaHei, PingFang SC, Arial, sans-serif" font-size="13" fill="#5A6B7E">比"假装查完实则臆测"建立更强的专业可信感</text>
    </g>

    <g transform="translate(704,564)">
      <path fill="#0F2A44" d="M4,0 H492 A4,4 0 0 1 496,4 V36 A4,4 0 0 1 492,40 H4 A4,4 0 0 1 0,36 V4 A4,4 0 0 1 4,0 Z" />
      <text x="248" y="26" font-family="Microsoft YaHei, PingFang SC, Arial, sans-serif" font-size="14" font-weight="bold" fill="#FFFFFF" text-anchor="middle">↳ 配合 D-5 / PM-2 置信度升级机制，形成闭环</text>
    </g>
  </g>

  <line x1="56" y1="676" x2="1224" y2="676" stroke="#E2E8F0" />
  <text x="56" y="700" font-family="Microsoft YaHei, PingFang SC, Arial, sans-serif" font-size="11" fill="#8896A6">ADR-005 · brainstorm D-5 / PM-2</text>
  <text x="1224" y="700" font-family="Microsoft YaHei, PingFang SC, Arial, sans-serif" font-size="11" fill="#8896A6" text-anchor="end">P08 / 12</text>
</svg>